<?xml version="1.0" encoding="UTF-8" standalone="no"?>
<svg enable-background="new 0 0 578.083 685.077" height="578.083" viewBox="0 0 578.083 685.077" width="578.083" xml:space="preserve" xmlns="http://www.w3.org/2000/svg"><defs></defs>
	
	
		
		
			
				
					
					
					
					
					
					
					
					
					
					
					
					
					
					
					
					
					
					
					
					
					
					
					
					
					
					
					
					
					
					<path d="m160.326,445.844c0,0-64.296,75.275-51.306,95.643s87.103-60.995 87.103-60.995l-35.797-34.648z" fill="#d10000"></path>
					<path d="m418.116,445.844c0,0 64.297,75.275 51.304,95.643s-87.104-60.995-87.104-60.995l35.8-34.648z" fill="#d10000"></path>
					<path d="m293.557,130.563c94.652,0 171.38,76.73 171.38,171.378s-76.728,171.375-171.38,171.375-171.375-76.727-171.375-171.375 76.729-171.378 171.375-171.378z" fill="#f66" stroke="#000" stroke-width="10.0411"></path>
					<path d="m291.92,525.799c118.252,0 214.26-95.174 215.634-213.101h-431.27c1.377,117.927 97.385,213.101 215.636,213.101z" fill="#f00"></path>
					<path d="m160.326,124.894c0,0-64.296-75.274-51.306-95.644s87.103,60.997 87.103,60.997l-35.797,34.647z" fill="#d10000"></path>
					<path d="m418.116,124.894c0,0 64.297-75.274 51.304-95.644s-87.104,60.997-87.104,60.997l35.8,34.647z" fill="#d10000"></path>
					<path d="m62.981,286.4c0,12.476-10.115,22.591-22.59,22.591s-22.59-10.115-22.59-22.591 10.114-22.59 22.59-22.59 22.59,10.114 22.59,22.59z" fill="#f00"></path>
					<path d="m52.009,282.527 80.036-7.099-.647,29.043-79.389-11.616v-10.328z" fill="#f00"></path>
					<path d="m526.769,286.4c0,12.476 10.114,22.591 22.593,22.591s22.59-10.115 22.59-22.591-10.115-22.59-22.59-22.59-22.593,10.114-22.593,22.59z" fill="#f00"></path>
					<path d="m537.741,282.527-80.034-7.099 .646,29.043 79.388-11.616v-10.328z" fill="#f00"></path>
					<path d="m245.135,288.773c0,11.322-9.179,20.501-20.501,20.501s-20.5-9.179-20.5-20.501 9.178-20.5 20.5-20.5 20.501,9.179 20.501,20.5z"></path>
					<path d="m376.331,288.773c0,11.322-9.181,20.501-20.498,20.501s-20.5-9.179-20.5-20.501 9.177-20.5 20.5-20.5 20.498,9.179 20.498,20.5z"></path>
					<path d="m301.318,53.765v51.332c0,5.888-4.773,10.661-10.659,10.661s-10.661-4.772-10.661-10.661v-51.362c-113.484,5.329-204.017,98.366-205.353,212.851h431.272c-1.335-114.232-91.467-207.118-204.599-212.821z" fill="#f00"></path>
					<path d="m96.844,221.176c-2.269,7.715-7.066,13.1-10.714,12.028l-10.59-3.114c-3.647-1.073-4.766-8.198-2.497-15.913l13.529-46.006c2.269-7.715 7.064-13.102 10.712-12.029l10.591,3.115c3.647,1.071 4.766,8.196 2.497,15.913l-13.528,46.006z"></path>
					<path d="m480.963,221.176c2.269,7.715 7.065,13.1 10.714,12.028l10.59-3.114c3.648-1.073 4.767-8.198 2.498-15.913l-13.53-46.006c-2.267-7.715-7.063-13.102-10.714-12.029l-10.589,3.115c-3.647,1.071-4.766,8.196-2.496,15.913l13.527,46.006z"></path>
					<path d="m154.601,470.082c7.004,2.824 14.38,4.34 22,4.34 45.616,0 82.593-54.063 82.593-120.755 0-14.535-1.756-28.467-4.977-41.374" fill="none" stroke="#fff" stroke-width="6.984"></path>
					<path d="m424.575,471.173c-7.005,2.822-14.38,4.34-22,4.34-45.617,0-82.595-54.063-82.595-120.754 0-14.536 1.759-28.47 4.976-41.376" fill="none" stroke="#fff" stroke-width="6.984"></path>
					<path d="m322.764,336.327h-65.522v-8.781h65.522v8.781z" fill="#fff"></path>
					<path d="m322.764,361.219h-65.522v-8.781h65.522v8.781z" fill="#fff"></path>
					<path d="m322.764,386.112h-65.522v-8.782h65.522v8.782z" fill="#fff"></path>
					<path d="m326.31,411.005h-73.627v-8.783h73.627v8.783z" fill="#fff"></path>
					<path d="m336.443,432.268h-92.881v-8.781h92.881v8.781z" fill="#fff"></path>
					<path d="m353.162,457.163h-128.851v-8.782h128.851v8.782z" fill="#fff"></path>
				
			
		
	
	
</svg>
