<?xml version="1.0" encoding="UTF-8" standalone="no"?>
<svg viewBox="0 0 625.75299 953.79712" xmlns="http://www.w3.org/2000/svg">
<g transform="matrix(.80966,-.15137,.14161,.86574,146.09172,-47.89096)">
<path d="m105.71429,789.50507h125.71429v294.28571h-125.71429z" stroke="#000" stroke-opacity=".00391" stroke-width="3.6"/>
<path d="m120,806.64789h80v251.42857h-80z" fill="#ccc" stroke="#000" stroke-opacity=".00391" stroke-width="3.6"/>
<path d="m267.34411,1148.4957c-10.58283,64.6244-37.47654,15.0646-98.81802,20.0077-83.99071,6.7681-131.69256,8.6016-121.10973-56.0229s68.39441-108.9505 129.12579-99.0052 101.3848,70.396 90.80196,135.0204z" stroke="#000" stroke-opacity=".00391" stroke-width="3.6"/>
<path d="m244.90011,1134.7935c-8.31642,49.7189-29.45059,11.59-77.65523,15.3929-66.00332,5.2071-103.4894,6.6177-95.17298-43.1013s53.74713-83.8213 101.47233-76.1699 79.67231,54.1593 71.35588,103.8783z" fill="#ccc" stroke="#000" stroke-opacity=".00391" stroke-width="2.79919"/>
</g>
<g transform="matrix(-.80972,-.15111,-.14127,.86579,458.19508,-49.43657)">
<path d="m105.71429,789.50507h125.71429v294.28571h-125.71429z" stroke="#000" stroke-opacity=".00391" stroke-width="3.6"/>
<path d="m120,806.64789h80v251.42857h-80z" fill="#ccc" stroke="#000" stroke-opacity=".00391" stroke-width="3.6"/>
<path d="m267.34411,1148.4957c-10.58283,64.6244-37.47654,15.0646-98.81802,20.0077-83.99071,6.7681-131.69256,8.6016-121.10973-56.0229s68.39441-108.9505 129.12579-99.0052 101.3848,70.396 90.80196,135.0204z" stroke="#000" stroke-opacity=".00391" stroke-width="3.6"/>
<path d="m244.90011,1134.7935c-8.31642,49.7189-29.45059,11.59-77.65523,15.3929-66.00332,5.2071-103.4894,6.6177-95.17298-43.1013s53.74713-83.8213 101.47233-76.1699 79.67231,54.1593 71.35588,103.8783z" fill="#ccc" stroke="#000" stroke-opacity=".00391" stroke-width="2.79919"/>
</g>
<path d="m-133.35072,696.2326h114.28571v277.14285h-114.28571z" stroke="#000" stroke-opacity=".00391" stroke-width="3.6" transform="matrix(.67126,-.38241,.45694,.58167,150.52179,61.1623)"/>
<path d="m-97.81502,719.50671h93.60287v228.36601h-93.60287z" fill="#ccc" stroke="#000" stroke-opacity=".00391" stroke-width="2.95743" transform="matrix(.65471,-.40272,.43309,.59474,150.52179,61.1623)"/>
<g transform="matrix(-.916,.64142,-.7297,-.84805,1434.69036,1631.73176)">
<g transform="matrix(.87264,0,0,.7334,-61.52318,367.51226)">
<path d="m202.85714,1026.6479c0,31.5592-24.30454,57.1429-54.28571,57.1429s-54.28572-25.5837-54.28572-57.1429 24.30454-57.14281 54.28572-57.14281 54.28571,25.58373 54.28571,57.14281z" stroke="#000" stroke-opacity=".00391" stroke-width="3.6" transform="translate(-37.14286,57.14286)"/>
<path d="m137.14286,1090.9336c0,19.7244-12.15227,35.7143-27.14286,35.7143s-27.14286-15.9899-27.14286-35.7143 12.15227-35.7143 27.14286-35.7143 27.14286,15.9898 27.14286,35.7143z" fill="#ccc" stroke="#000" stroke-opacity=".00391" stroke-width="3.6" transform="matrix(1.34815,0,0,1.26459,-39.72487,-295.79581)"/>
<path d="m120,1085.2194c0,10.2567-6.39593,18.5714-14.28571,18.5714s-14.28572-8.3147-14.28572-18.5714 6.39593-18.5715 14.28572-18.5715 14.28571,8.3147 14.28571,18.5715z" stroke="#000" stroke-opacity=".00391" stroke-width="3.6"/>
</g>
<path d="m48.57143,1162.3622c0,10.2567-7.67512,18.5714-17.14286,18.5714s-17.14286-8.3147-17.14286-18.5714 7.67512-18.5714 17.14286-18.5714 17.14286,8.3147 17.14286,18.5714z" stroke="#000" stroke-opacity=".00391" stroke-width="3.6"/>
</g>
<g transform="matrix(-.72503,.50769,-.56278,-.65405,1262.87801,1363.73825)">
<g transform="matrix(.87264,0,0,.7334,-61.52318,367.51226)">
<path d="m202.85714,1026.6479c0,31.5592-24.30454,57.1429-54.28571,57.1429s-54.28572-25.5837-54.28572-57.1429 24.30454-57.14281 54.28572-57.14281 54.28571,25.58373 54.28571,57.14281z" stroke="#000" stroke-opacity=".00391" stroke-width="3.6" transform="translate(-37.14286,57.14286)"/>
<path d="m137.14286,1090.9336c0,19.7244-12.15227,35.7143-27.14286,35.7143s-27.14286-15.9899-27.14286-35.7143 12.15227-35.7143 27.14286-35.7143 27.14286,15.9898 27.14286,35.7143z" fill="#ccc" stroke="#000" stroke-opacity=".00391" stroke-width="3.6" transform="matrix(1.34815,0,0,1.26459,-39.72487,-295.79581)"/>
<path d="m120,1085.2194c0,10.2567-6.39593,18.5714-14.28571,18.5714s-14.28572-8.3147-14.28572-18.5714 6.39593-18.5715 14.28572-18.5715 14.28571,8.3147 14.28571,18.5715z" stroke="#000" stroke-opacity=".00391" stroke-width="3.6"/>
</g>
<path d="m48.57143,1162.3622c0,10.2567-7.67512,18.5714-17.14286,18.5714s-17.14286-8.3147-17.14286-18.5714 7.67512-18.5714 17.14286-18.5714 17.14286,8.3147 17.14286,18.5714z" stroke="#000" stroke-opacity=".00391" stroke-width="3.6"/>
</g>
<g transform="matrix(-.72503,.50769,-.56278,-.65405,1180.03194,1408.27377)">
<g transform="matrix(.87264,0,0,.7334,-61.52318,367.51226)">
<path d="m202.85714,1026.6479c0,31.5592-24.30454,57.1429-54.28571,57.1429s-54.28572-25.5837-54.28572-57.1429 24.30454-57.14281 54.28572-57.14281 54.28571,25.58373 54.28571,57.14281z" stroke="#000" stroke-opacity=".00391" stroke-width="3.6" transform="translate(-37.14286,57.14286)"/>
<path d="m137.14286,1090.9336c0,19.7244-12.15227,35.7143-27.14286,35.7143s-27.14286-15.9899-27.14286-35.7143 12.15227-35.7143 27.14286-35.7143 27.14286,15.9898 27.14286,35.7143z" fill="#ccc" stroke="#000" stroke-opacity=".00391" stroke-width="3.6" transform="matrix(1.34815,0,0,1.26459,-39.72487,-295.79581)"/>
<path d="m120,1085.2194c0,10.2567-6.39593,18.5714-14.28571,18.5714s-14.28572-8.3147-14.28572-18.5714 6.39593-18.5715 14.28572-18.5715 14.28571,8.3147 14.28571,18.5715z" stroke="#000" stroke-opacity=".00391" stroke-width="3.6"/>
</g>
<path d="m48.57143,1162.3622c0,10.2567-7.67512,18.5714-17.14286,18.5714s-17.14286-8.3147-17.14286-18.5714 7.67512-18.5714 17.14286-18.5714 17.14286,8.3147 17.14286,18.5714z" stroke="#000" stroke-opacity=".00391" stroke-width="3.6"/>
</g>
<g transform="matrix(.96903,-.00016,.00017,.87888,818.72504,-310.73888)">
<g transform="matrix(-.10405,-.71179,-.81688,.09066,102.94467,506.95621)">
<g transform="matrix(.169,0,0,1,-362.38886,0)">
<path d="m-433.02316,736.48187c423.51779,225.60526 925.89881-84.01921 1486.04626,0v77.47489c-495.51309.0986-1298.36532,184.60069-1486.04626,0v-77.47489z" stroke="#000" stroke-opacity=".00391" stroke-width="6.12511"/>
</g>
<path d="m-186.78463,728.43471c54.93778,84.75552 109.47628,178.25316 176.42639,0v78.21263c-33.01335,83.78724-79.69885,123.16544-176.42639,0v-78.21263z" stroke="#000" stroke-opacity=".00391" stroke-width="1.45931"/>
</g>
<g fill="#ccc" transform="matrix(-.11797,-.70979,-.59243,.05919,-86.57128,533.84453)">
<g fill="#ccc" transform="matrix(.169,0,0,1,-362.38886,0)">
<path d="m-433.02316,736.48187c423.51779,225.60526 925.89881-84.01921 1486.04626,0v77.47489c-495.51309.0986-1298.36532,184.60069-1486.04626,0v-77.47489z" fill="#ccc" stroke="#000" stroke-opacity=".00391" stroke-width="6.12511"/>
</g>
<path d="m-186.78463,728.43471c54.93778,84.75552 109.47628,178.25316 176.42639,0v78.21263c-33.01335,83.78724-79.69885,123.16544-176.42639,0v-78.21263z" fill="#ccc" stroke="#000" stroke-opacity=".00391" stroke-width="1.45931"/>
</g>
<g transform="matrix(.99532,.09662,-.09662,.99532,43.61492,52.61155)">
<path d="m-431.42858,470.93362c0,67.06315-46.69031,121.42858-104.28571,121.42858s-104.28572-54.36543-104.28572-121.42858 46.69031-121.42857 104.28572-121.42857 104.28571,54.36542 104.28571,121.42857z" stroke="#000" stroke-opacity=".00391" stroke-width="3.6" transform="translate(14.28571,5.71429)"/>
<path d="m-451.42857,478.07648c0,48.91665-32.61925,88.57142-72.85714,88.57142s-72.85714-39.65477-72.85714-88.57142 32.61926-88.57143 72.85714-88.57143 72.85714,39.65478 72.85714,88.57143z" fill="#ccc" stroke="#000" stroke-opacity=".00391" stroke-width="3.6"/>
<path d="m-431.42858,470.93362c0,67.06315-46.69031,121.42858-104.28571,121.42858s-104.28572-54.36543-104.28572-121.42858 46.69031-121.42857 104.28572-121.42857 104.28571,54.36542 104.28571,121.42857z" stroke="#000" stroke-opacity=".00391" stroke-width="3.6" transform="matrix(.67681,0,0,.65221,-165.994,148.06972)"/>
<path d="m-451.42857,478.07648c0,48.91665-32.61925,88.57142-72.85714,88.57142s-72.85714-39.65477-72.85714-88.57142 32.61926-88.57143 72.85714-88.57143 72.85714,39.65478 72.85714,88.57143z" fill="#f00" stroke="#000" stroke-opacity=".00391" stroke-width="3.6" transform="matrix(.67681,0,0,.65221,-175.66273,144.34278)"/>
</g>
<path d="m-522.85712,415.21933h17.14286v14.28571h-17.14286z" fill="#fff" stroke="#000" stroke-opacity=".00391" stroke-width="3.6"/>
<path d="m-514.28571,423.79074h14.28571v11.42857h-14.28571z" fill="#fff" stroke="#000" stroke-opacity=".00391" stroke-width="3.6"/>
<path d="m-602.85712,626.64789h37.14286v11.42857h-37.14286z" stroke="#000" stroke-opacity=".00391" stroke-width="3.6"/>
<path d="m-585.71429,669.50507h40v11.42857h-40z" stroke="#000" stroke-opacity=".00391" stroke-width="3.6"/>
<path d="m-545.71429,715.2193h57.14286v14.28571h-57.14286z" stroke="#000" stroke-opacity=".00391" stroke-width="3.6"/>
<path d="m-554.28571,758.07648h71.42857v11.42857h-71.42857z" stroke="#000" stroke-opacity=".00391" stroke-width="3.6"/>
<path d="m-571.42859,798.07648h62.85714v11.42857h-62.85714z" stroke="#000" stroke-opacity=".00391" stroke-width="3.6"/>
<path d="m-588.57141,832.36218h65.71429v8.57143h-65.71429z" stroke="#000" stroke-opacity=".00391" stroke-width="3.6"/>
<path d="m-571.42859,866.64789h68.57143v11.42857h-68.57143z" stroke="#000" stroke-opacity=".00391" stroke-width="3.6"/>
</g>
<path d="m-133.35072,696.2326h114.28571v277.14285h-114.28571z" stroke="#000" stroke-opacity=".00391" stroke-width="3.6" transform="matrix(-.67141,-.3822,-.45671,.58182,475.01204,75.6287)"/>
<path d="m-97.81502,719.50671h93.60287v228.36601h-93.60287z" fill="#ccc" stroke="#000" stroke-opacity=".00391" stroke-width="2.95743" transform="matrix(-.65487,-.4025,-.43286,.59488,475.01204,75.6287)"/>
<g transform="matrix(.91626,.64112,.72937,-.84828,-808.53759,1646.61429)">
<g transform="matrix(.87264,0,0,.7334,-61.52318,367.51226)">
<path d="m202.85714,1026.6479c0,31.5592-24.30454,57.1429-54.28571,57.1429s-54.28572-25.5837-54.28572-57.1429 24.30454-57.14281 54.28572-57.14281 54.28571,25.58373 54.28571,57.14281z" stroke="#000" stroke-opacity=".00391" stroke-width="3.6" transform="translate(-37.14286,57.14286)"/>
<path d="m137.14286,1090.9336c0,19.7244-12.15227,35.7143-27.14286,35.7143s-27.14286-15.9899-27.14286-35.7143 12.15227-35.7143 27.14286-35.7143 27.14286,15.9898 27.14286,35.7143z" fill="#ccc" stroke="#000" stroke-opacity=".00391" stroke-width="3.6" transform="matrix(1.34815,0,0,1.26459,-39.72487,-295.79581)"/>
<path d="m120,1085.2194c0,10.2567-6.39593,18.5714-14.28571,18.5714s-14.28572-8.3147-14.28572-18.5714 6.39593-18.5715 14.28572-18.5715 14.28571,8.3147 14.28571,18.5715z" stroke="#000" stroke-opacity=".00391" stroke-width="3.6"/>
</g>
<path d="m48.57143,1162.3622c0,10.2567-7.67512,18.5714-17.14286,18.5714s-17.14286-8.3147-17.14286-18.5714 7.67512-18.5714 17.14286-18.5714 17.14286,8.3147 17.14286,18.5714z" stroke="#000" stroke-opacity=".00391" stroke-width="3.6"/>
</g>
<g transform="matrix(.72523,.50745,.56252,-.65424,-636.83085,1378.56511)">
<g transform="matrix(.87264,0,0,.7334,-61.52318,367.51226)">
<path d="m202.85714,1026.6479c0,31.5592-24.30454,57.1429-54.28571,57.1429s-54.28572-25.5837-54.28572-57.1429 24.30454-57.14281 54.28572-57.14281 54.28571,25.58373 54.28571,57.14281z" stroke="#000" stroke-opacity=".00391" stroke-width="3.6" transform="translate(-37.14286,57.14286)"/>
<path d="m137.14286,1090.9336c0,19.7244-12.15227,35.7143-27.14286,35.7143s-27.14286-15.9899-27.14286-35.7143 12.15227-35.7143 27.14286-35.7143 27.14286,15.9898 27.14286,35.7143z" fill="#ccc" stroke="#000" stroke-opacity=".00391" stroke-width="3.6" transform="matrix(1.34815,0,0,1.26459,-39.72487,-295.79581)"/>
<path d="m120,1085.2194c0,10.2567-6.39593,18.5714-14.28571,18.5714s-14.28572-8.3147-14.28572-18.5714 6.39593-18.5715 14.28572-18.5715 14.28571,8.3147 14.28571,18.5715z" stroke="#000" stroke-opacity=".00391" stroke-width="3.6"/>
</g>
<path d="m48.57143,1162.3622c0,10.2567-7.67512,18.5714-17.14286,18.5714s-17.14286-8.3147-17.14286-18.5714 7.67512-18.5714 17.14286-18.5714 17.14286,8.3147 17.14286,18.5714z" stroke="#000" stroke-opacity=".00391" stroke-width="3.6"/>
</g>
<g transform="matrix(.72523,.50745,.56252,-.65424,-553.96723,1423.07377)">
<g transform="matrix(.87264,0,0,.7334,-61.52318,367.51226)">
<path d="m202.85714,1026.6479c0,31.5592-24.30454,57.1429-54.28571,57.1429s-54.28572-25.5837-54.28572-57.1429 24.30454-57.14281 54.28572-57.14281 54.28571,25.58373 54.28571,57.14281z" stroke="#000" stroke-opacity=".00391" stroke-width="3.6" transform="translate(-37.14286,57.14286)"/>
<path d="m137.14286,1090.9336c0,19.7244-12.15227,35.7143-27.14286,35.7143s-27.14286-15.9899-27.14286-35.7143 12.15227-35.7143 27.14286-35.7143 27.14286,15.9898 27.14286,35.7143z" fill="#ccc" stroke="#000" stroke-opacity=".00391" stroke-width="3.6" transform="matrix(1.34815,0,0,1.26459,-39.72487,-295.79581)"/>
<path d="m120,1085.2194c0,10.2567-6.39593,18.5714-14.28571,18.5714s-14.28572-8.3147-14.28572-18.5714 6.39593-18.5715 14.28572-18.5715 14.28571,8.3147 14.28571,18.5715z" stroke="#000" stroke-opacity=".00391" stroke-width="3.6"/>
</g>
<path d="m48.57143,1162.3622c0,10.2567-7.67512,18.5714-17.14286,18.5714s-17.14286-8.3147-17.14286-18.5714 7.67512-18.5714 17.14286-18.5714 17.14286,8.3147 17.14286,18.5714z" stroke="#000" stroke-opacity=".00391" stroke-width="3.6"/>
</g>
<g transform="matrix(.80457,-.00013,.00014,.72294,153.48381,24.52653)">
<path d="m397.14285,708.07648c0,119.1357-93.38061,215.71428-208.57142,215.71428s-208.57143-96.57858-208.57143-215.71428 93.38061-215.71428 208.57143-215.71428 208.57142,96.57857 208.57142,215.71428z" stroke="#000" stroke-opacity=".00391" stroke-width="3.6"/>
<path d="m354.28571,715.2193c0,91.52147-65.23851,165.71428-145.71428,165.71428s-145.71428-74.19281-145.71428-165.71428 65.2385-165.71428 145.71428-165.71428 145.71428,74.19281 145.71428,165.71428z" fill="#ccc" stroke="#000" stroke-opacity=".00391" stroke-width="3.6" transform="matrix(1.14591,0,0,1.0421,-51.86182,-37.25055)"/>
</g>
<g transform="matrix(.31112,.00209,-.00243,.26842,256.14661,311.29362)">
<g transform="matrix(.83028,0,0,.82257,-7.99583,484.20514)">
<path d="m397.14285,708.07648c0,119.1357-93.38061,215.71428-208.57142,215.71428s-208.57143-96.57858-208.57143-215.71428 93.38061-215.71428 208.57143-215.71428 208.57142,96.57857 208.57142,215.71428z" stroke="#000" stroke-opacity=".00391" stroke-width="3.6"/>
<path d="m354.28571,715.2193c0,91.52147-65.23851,165.71428-145.71428,165.71428s-145.71428-74.19281-145.71428-165.71428 65.2385-165.71428 145.71428-165.71428 145.71428,74.19281 145.71428,165.71428z" fill="#ccc" stroke="#000" stroke-opacity=".00391" stroke-width="3.6" transform="matrix(1.14591,0,0,1.0421,-51.86182,-37.25055)"/>
</g>
<path d="m91.42857,1009.5051h31.42857v20h-31.42857z" stroke="#000" stroke-opacity=".00391" stroke-width="3.6"/>
<path d="m114.28571,1023.7908h25.71429v57.14286h-25.71429z" stroke="#000" stroke-opacity=".00391" stroke-width="3.6"/>
<path d="m128.57143,1066.6479h97.14286v22.85714h-97.14286z" stroke="#000" stroke-opacity=".00391" stroke-width="3.6"/>
<path d="m168.57143,1080.9336h20v57.14286h-20z" stroke="#000" stroke-opacity=".00391" stroke-width="3.6"/>
<path d="m111.42857,1109.505h74.28571v17.14286h-74.28571z" stroke="#000" stroke-opacity=".00391" stroke-width="3.6"/>
<path d="m91.42857,1100.9336h25.71429v28.57143h-25.71429z" stroke="#000" stroke-opacity=".00391" stroke-width="3.6"/>
<path d="m71.42857,1086.6479h31.42857v17.14286h-31.42857z" stroke="#000" stroke-opacity=".00391" stroke-width="3.6"/>
<path d="m131.42857,1029.505h80v17.14286h-80z" stroke="#000" stroke-opacity=".00391" stroke-width="3.6"/>
<path d="m162.85715,983.79077h14.28571v54.28571h-14.28571z" stroke="#000" stroke-opacity=".00391" stroke-width="3.6"/>
<path d="m140,980.93359h31.42857v31.42857h-31.42857z" stroke="#000" stroke-opacity=".00391" stroke-width="3.6"/>
<path d="m151.42857,955.2193h20v42.85714h-20z" stroke="#000" stroke-opacity=".00391" stroke-width="3.6"/>
<path d="m140,946.64789h54.28571v20h-54.28571z" stroke="#000" stroke-opacity=".00391" stroke-width="3.6"/>
<path d="m194.28572,952.36218h22.85714v60h-22.85714z" stroke="#000" stroke-opacity=".00391" stroke-width="3.6"/>
<path d="m211.42857,998.07648h34.28571v25.71429h-34.28571z" stroke="#000" stroke-opacity=".00391" stroke-width="3.6"/>
<path d="m237.14285,1015.2193h22.85714v105.71429h-22.85714z" stroke="#000" stroke-opacity=".00391" stroke-width="3.6"/>
<path d="m200,1123.7908h42.85714v22.85714h-42.85714z" stroke="#000" stroke-opacity=".00391" stroke-width="3.6"/>
<path d="m54.28571,1009.5051h20v140h-20z" stroke="#000" stroke-opacity=".00391" stroke-width="3.6"/>
<path d="m62.85714,955.2193h22.85714v60h-22.85714z" stroke="#000" stroke-opacity=".00391" stroke-width="3.6"/>
</g>
<g transform="matrix(.67958,-.00011,.00012,.62575,349.16591,-35.25537)">
<path d="m11.42857,856.64789c0,46.54971-32.02171,27.14285-78.57143,27.14285s-90,19.40686-90-27.14285 37.736-84.28572 84.28571-84.28572 84.28571,37.736 84.28571,84.28572z" stroke="#000" stroke-opacity=".00391" stroke-width="3.6"/>
<path d="m-6.79084,850.97248c0,37.61681-25.64256,21.93414-62.91895,21.93414s-72.07079,15.68267-72.07079-21.93414 30.21849-68.11127 67.49487-68.11127 67.49487,30.49446 67.49487,68.11127z" fill="#fff" stroke="#000" stroke-opacity=".00391" stroke-width="2.89597"/>
<path d="m-114.28571,786.64789h2.85714v17.14286h-2.85714z" stroke="#000" stroke-opacity=".00391" stroke-width="3.6"/>
<path d="m-117.14286,789.50507h17.14286v88.57143h-17.14286z" stroke="#000" stroke-opacity=".00391" stroke-width="3.6"/>
<path d="m-82.85714,778.07648h20v100h-20z" stroke="#000" stroke-opacity=".00391" stroke-width="3.6"/>
<path d="m-34.28571,789.50507h14.28571v88.57143h-14.28571z" stroke="#000" stroke-opacity=".00391" stroke-width="3.6"/>
<path d="m-145.71428,838.07648h142.85715v14.28571h-142.85715z" stroke="#000" stroke-opacity=".00391" stroke-width="3.6"/>
</g>
<g transform="matrix(.52399,.22084,-.21398,.41764,641.59939,-49.79565)">
<path d="m140,949.50507c0,118.34673-49.88827,214.28573-111.42857,214.28573s-111.42857-95.939-111.42857-214.28573 49.88827-214.28572 111.42857-214.28572 111.42857,95.93898 111.42857,214.28572z" stroke="#000" stroke-opacity=".00391" stroke-width="3.6"/>
<path d="m105.71429,952.36218c0,93.09942-28.14211,168.57142-62.85715,168.57142s-62.85714-75.472-62.85714-168.57142 28.1421-168.57142 62.85714-168.57142 62.85715,75.47199 62.85715,168.57142z" fill="#0f0" stroke="#000" stroke-opacity=".00391" stroke-width="3.6" transform="matrix(1.26912,0,0,.99866,-28.67678,1.27927)"/>
<path d="m57.14286,838.07648c0,7.88978-5.11675,14.28571-11.42857,14.28571s-11.42857-6.39593-11.42857-14.28571 5.11675-14.28572 11.42857-14.28572 11.42857,6.39593 11.42857,14.28572z" fill="#fff" stroke="#000" stroke-opacity=".00391" stroke-width="3.6" transform="translate(2.85714,-2.85714)"/>
<path d="m54.28572,928.07648c0,26.03628-15.98983,47.14285-35.71429,47.14285s-35.71429-21.10657-35.71429-47.14285 15.98983-47.14286 35.71429-47.14286 35.71429,21.10658 35.71429,47.14286z" fill="#fff" stroke="#000" stroke-opacity=".00391" stroke-width="3.6" transform="translate(2.85714,-2.85714)"/>
<path d="m74.28572,1038.0764c0,12.6237-7.03552,22.8572-15.71429,22.8572s-15.71429-10.2335-15.71429-22.8572 7.03553-22.8571 15.71429-22.8571 15.71429,10.2335 15.71429,22.8571z" fill="#fff" stroke="#000" stroke-opacity=".00391" stroke-width="3.6" transform="translate(2.85714,-2.85714)"/>
<path d="m11.42857,1072.3622c0,11.0457-5.75634,20-12.85714,20s-12.85714-8.9543-12.85714-20 5.75634-20 12.85714-20 12.85714,8.9543 12.85714,20z" fill="#fff" stroke="#000" stroke-opacity=".00391" stroke-width="3.6" transform="translate(2.85714,-2.85714)"/>
</g>
<g transform="matrix(.57134,-.1571,.21854,.42665,-472.54314,16.47479)">
<g transform="translate(680,85.71426)">
<path d="m140,949.50507c0,118.34673-49.88827,214.28573-111.42857,214.28573s-111.42857-95.939-111.42857-214.28573 49.88827-214.28572 111.42857-214.28572 111.42857,95.93898 111.42857,214.28572z" stroke="#000" stroke-opacity=".00391" stroke-width="3.6"/>
<path d="m105.71429,952.36218c0,93.09942-28.14211,168.57142-62.85715,168.57142s-62.85714-75.472-62.85714-168.57142 28.1421-168.57142 62.85714-168.57142 62.85715,75.47199 62.85715,168.57142z" fill="#0f0" stroke="#000" stroke-opacity=".00391" stroke-width="3.6" transform="matrix(1.26912,0,0,.99866,-28.67678,1.27927)"/>
</g>
<path d="m737.14283,955.2193c0,23.66935-15.35024,42.85714-34.28571,42.85714s-34.28572-19.18779-34.28572-42.85714 15.35024-42.85714 34.28572-42.85714 34.28571,19.18779 34.28571,42.85714z" fill="#fff" stroke="#000" stroke-opacity=".00391" stroke-width="3.6"/>
<path d="m751.42855,1055.2194c0,17.3575-5.75634,31.4285-12.85714,31.4285s-12.85714-14.071-12.85714-31.4285 5.75634-31.4286 12.85714-31.4286 12.85714,14.071 12.85714,31.4286z" fill="#fff" stroke="#000" stroke-opacity=".00391" stroke-width="3.6"/>
<path d="m717.14284,1166.6479c0,9.4678-8.31471,17.1429-18.57143,17.1429s-18.57143-7.6751-18.57143-17.1429 8.31471-17.1428 18.57143-17.1428 18.57143,7.6751 18.57143,17.1428z" fill="#fff" stroke="#000" stroke-opacity=".00391" stroke-width="3.6"/>
<path d="m702.85717,1108.0764c0,10.2567-7.03553,18.5714-15.71429,18.5714s-15.71428-8.3147-15.71428-18.5714 7.03552-18.5714 15.71428-18.5714 15.71429,8.3147 15.71429,18.5714z" fill="#fff" stroke="#000" stroke-opacity=".00391" stroke-width="3.6"/>
<path d="m688.57141,1028.0764c0,13.4126-8.9543,24.2857-20,24.2857s-20-10.8731-20-24.2857 8.95431-24.2857 20-24.2857 20,10.8731 20,24.2857z" fill="#fff" stroke="#000" stroke-opacity=".00391" stroke-width="3.6"/>
</g>
</svg>
