<?xml version="1.0" encoding="UTF-8" standalone="no"?>
<svg width="640" xmlns="http://www.w3.org/2000/svg" xmlns:xlink="http://www.w3.org/1999/xlink" height="480">
 <g stroke="#000">
  <g stroke-width="6" stroke-dasharray="6,12" fill="none">
   <path id="path4660" stroke-dashoffset="60" d="m126.36 168.35c-3.6102 66.581 63.187 90.865 120.9 90.865"/>
   <path id="path4660-8" d="m356.57 257.43c45.91-48.356 112.63-10.116 152.27 31.831"/>
  </g>
  <g fill="#117a88">
   <path id="rect3848" stroke-width="2" d="m235.41 200.32c48.175 1.3084 98.194 0.40454 132.75 18.054-4.259 48.498-16.548 96.997-57.348 145.5-31.506 5.134-63.012 7.466-94.519-18.054 19.981-48.498 30.187-96.997 19.116-145.5v-0.000031z"/>
   <path id="path3850" stroke-width="4.173" d="m223.08 179.9c-4.8311-42.555 13.274-97.858 68.305-117.66 78.218-28.146 113.41 85.297 113.41 85.297s-53.786 1.1919-80.238 5.5614c-34.518 5.7019-101.48 26.802-101.48 26.802z"/>
  </g>
  <g stroke-width="2">
   <path id="path3866" fill="#fff" d="m375.68 83.114c0 24.677-20.005 44.682-44.682 44.682s-44.682-20.005-44.682-44.682 20.005-44.682 44.682-44.682 44.682 20.005 44.682 44.682z"/>
   <path id="path3868" d="m365.91 89.121c0 6.4285-5.2113 11.64-11.64 11.64-6.4285 0-11.64-5.2113-11.64-11.64 0-6.4285 5.2113-11.64 11.64-11.64 6.4285 0 11.64 5.2113 11.64 11.64z"/>
   <path id="path4415" fill="#06a2b6" d="m259.62 212.14c5.9041 42.722-3.5658 85.963-18.938 125.69 20.67 13.042 46.969 14.846 70.5 9.4375 28.477-34.855 45.557-78.637 49.188-123.38-32.042-12.043-66.992-11.055-100.81-12.25l0.0625 0.5z"/>
   <path id="path4450" fill="#00e3ff" d="m294.78 240.11c-0.56723 26.892-5.8246 53.422-13.375 79.156 6.4839 0.59222 14.244 1.7652 20.12-0.68298 16.26-22.609 27.876-48.866 32.911-76.317-13.059-2.3909-26.316-3.5686-39.625-3.6875l-0.0204 0.9998-0.0109 0.5315h0.000061z"/>
   <g fill="#117a88">
    <path id="path4652" d="m196.48 407.12c-7.6556 7.2701-26.631-0.28308-42.383-16.87s-22.315-35.927-14.659-43.197c7.6556-7.27 12.769 13.447 28.521 30.034s36.177 22.764 28.521 30.034v-0.000061z"/>
    <path id="path4654" d="m330.99 433.96c0 9.971-20.208 18.054-45.135 18.054-24.928 0-45.135-12.331-45.135-22.302s20.208 3.186 45.135 3.186c24.928 0 45.135-8.909 45.135 1.062z"/>
   </g>
   <g fill="#ff003c">
    <path id="path4658" d="m321.86 259.69a10.513 10.513 0 1 1 -21.026 0"/>
    <path id="path4690" d="m506.58 316.06c-7.1356-3.8066-9.8342-12.677-6.0276-19.813 3.8066-7.1356 12.677-9.8342 19.813-6.0276 8.8835 5.4366 9.9246 16.426 3.0253 23.694l-9.9178-10.774-6.8925 12.92z"/>
    <path id="path4690-2" d="m129.45 140.87c7.6542 2.6115 11.742 10.934 9.1306 18.588-2.6115 7.6542-10.934 11.742-18.588 9.1305-9.6412-3.9396-12.433-14.619-6.7904-22.901l11.519 9.0415 4.7286-13.859z"/>
   </g>
  </g>
  <g stroke-width=".2" fill-opacity=".32">
   <path id="path4754" d="m247.78 92.531c-21.023 25.357-27.921 59.17-24.719 87.375 0 0 15.518-4.8621 35.312-10.531 0 0-9.4769-22.812-11.281-34.906-2.063-13.828 0.6875-41.938 0.6875-41.938z"/>
   <path id="path4761" d="m235.41 200.31c11.071 48.498 0.85599 97.002-19.125 145.5 1.709 1.3843 3.416 2.6818 5.125 3.9062 0 0 9.4834-14.45 12.407-22.5 10.094-27.793 16.119-57.529 16.469-87.062 0.15871-13.396-6.5322-39.656-6.5322-39.656-2.781-0.064606-5.5717-0.11221-8.3438-0.1875z"/>
   <path id="path4768" d="m111.38 149.19c-3.0562 9.208 2.2708 18.822 12 20.094-7.7915-6.6979-10.526-13.396-12-20.094z"/>
   <path id="path4775" d="m507.53 289.78c-10.722 2.9708-13.543 16.372-3.3762 24.67-1.1765-5.6672-1.06-16.964 3.3762-24.67z"/>
   <path id="path4782" d="m142.22 345.56c-0.90326 0.096893-1.8243 0.59125-2.7812 1.5-4.957 4.7073-3.9438 14.477 1.6562 25.281-0.14743-13.831 1.8001-20.853 4.4688-25.531-1.1234-0.90793-2.2263-1.3699-3.3438-1.25z"/>
   <path id="path4786" d="m245.16 425.97c-2.8524-0.047302-4.4375 0.94565-4.4375 3.75 0 5.3906 5.9159 11.457 15.281 15.906 0.71454-6.498 2.1735-12.438 7.0938-15.781-7.7258-1.826-14.031-3.8102-17.938-3.875z"/>
  </g>
  <g id="g5866">
   <path id="path4799" d="m334.18 156.49c-0.13828-12.548 4.3411-24.785 8.6048-25.731 4.2638-0.94638 6.6974 9.7559 6.8357 22.304 0.001862 0.13019 0.002747 0.26059 0.003601 0.39099 0 0-4.9346-2.7358-7.4414-2.2909-2.7113 0.48123-8.0024 5.3269-8.0024 5.3269h-0.000336z" stroke-dashoffset="4.728" stroke-width=".764" fill="#a59e9e"/>
   <g stroke-width=".5" fill="none">
    <path id="path5854" d="m336.07 141.3l3.34 10.875"/>
    <path id="path5858" d="m343.35 130.94l-0.3962 20.108"/>
    <path id="path5862" d="m348.7 140.45l-3.1705 11.167"/>
   </g>
  </g>
 </g>
</svg>
